<svg width="48" height="48" viewBox="0 0 48 48" fill="none" xmlns="http://www.w3.org/2000/svg">
<path d="M6.23607 21.882C6.65955 21.035 7.52521 20.5 8.47214 20.5H39.5279C40.4748 20.5 41.3405 21.035 41.7639 21.882L43.7639 25.882C44.5951 27.5442 43.3863 29.5 41.5279 29.5H6.47214C4.61368 29.5 3.40494 27.5442 4.23607 25.882L6.23607 21.882Z" stroke="#152C5B" stroke-width="3"/>
<mask id="path-2-inside-1" fill="white">
<path d="M10 47C7.79086 47 6 45.2091 6 43L6 29C6 28.4477 6.44772 28 7 28H13C13.5523 28 14 28.4477 14 29L14 43C14 45.2091 12.2091 47 10 47Z"/>
</mask>
<path d="M10 47C7.79086 47 6 45.2091 6 43L6 29C6 28.4477 6.44772 28 7 28H13C13.5523 28 14 28.4477 14 29L14 43C14 45.2091 12.2091 47 10 47Z" stroke="#152C5B" stroke-width="6" mask="url(#path-2-inside-1)"/>
<mask id="path-3-inside-2" fill="white">
<path d="M39 47C36.7909 47 35 45.2091 35 43V29C35 28.4477 35.4477 28 36 28H42C42.5523 28 43 28.4477 43 29V43C43 45.2091 41.2091 47 39 47Z"/>
</mask>
<path d="M39 47C36.7909 47 35 45.2091 35 43V29C35 28.4477 35.4477 28 36 28H42C42.5523 28 43 28.4477 43 29V43C43 45.2091 41.2091 47 39 47Z" stroke="#152C5B" stroke-width="6" mask="url(#path-3-inside-2)"/>
<path d="M32 19V13" stroke="#152C5B" stroke-width="3" stroke-linecap="round"/>
<mask id="path-5-inside-3" fill="white">
<path d="M32 14C29.7909 14 28 12.2091 28 10V5C28 4.44772 28.4477 4 29 4H35C35.5523 4 36 4.44771 36 5V10C36 12.2091 34.2091 14 32 14Z"/>
</mask>
<path d="M32 14C29.7909 14 28 12.2091 28 10V5C28 4.44772 28.4477 4 29 4H35C35.5523 4 36 4.44771 36 5V10C36 12.2091 34.2091 14 32 14Z" stroke="#FF498B" stroke-width="6" mask="url(#path-5-inside-3)"/>
<path d="M17 19V13" stroke="#152C5B" stroke-width="3" stroke-linecap="round"/>
<mask id="path-7-inside-4" fill="white">
<path d="M17 14C14.7909 14 13 12.2091 13 10V5C13 4.44772 13.4477 4 14 4H20C20.5523 4 21 4.44771 21 5V10C21 12.2091 19.2091 14 17 14Z"/>
</mask>
<path d="M17 14C14.7909 14 13 12.2091 13 10V5C13 4.44772 13.4477 4 14 4H20C20.5523 4 21 4.44771 21 5V10C21 12.2091 19.2091 14 17 14Z" stroke="#FF498B" stroke-width="6" mask="url(#path-7-inside-4)"/>
</svg>
