<svg width="48" height="48" viewBox="0 0 48 48" fill="none" xmlns="http://www.w3.org/2000/svg">
<path d="M30.5 40.5C30.5 41.6457 29.4516 43.1445 26.6771 44.4451C24.0221 45.6896 20.2488 46.5 16 46.5C11.7512 46.5 7.97793 45.6896 5.32294 44.4451C2.54839 43.1445 1.5 41.6457 1.5 40.5C1.5 39.3543 2.54839 37.8555 5.32294 36.5549C7.97793 35.3104 11.7512 34.5 16 34.5C20.2488 34.5 24.0221 35.3104 26.6771 36.5549C29.4516 37.8555 30.5 39.3543 30.5 40.5Z" stroke="#152C5B" stroke-width="3"/>
<path d="M28.5 15.4575C28.5 19.4562 27.0051 25.7497 24.5396 31.0472C23.3112 33.6864 21.8837 35.9859 20.3586 37.6018C18.8174 39.2347 17.3436 40 16 40C14.6564 40 13.1827 39.2347 11.6414 37.6018C10.1163 35.9859 8.68878 33.6864 7.46043 31.0472C4.9949 25.7497 3.5 19.4562 3.5 15.4575C3.5 7.60575 9.23276 1.5 16 1.5C22.7672 1.5 28.5 7.60575 28.5 15.4575Z" fill="white" stroke="#152C5B" stroke-width="3"/>
<circle cx="16" cy="14" r="4.5" stroke="#FF498B" stroke-width="3"/>
</svg>
