<svg width="48" height="48" viewBox="0 0 48 48" fill="none" xmlns="http://www.w3.org/2000/svg">
<mask id="path-1-inside-1" fill="white">
<path fill-rule="evenodd" clip-rule="evenodd" d="M19.1954 6C18.366 6 17.6228 6.51183 17.3269 7.2866L15.9091 11H8C3.58172 11 0 14.5817 0 19V33C0 37.4183 3.58172 41 8 41H40C44.4183 41 48 37.4183 48 33V19C48 14.5817 44.4183 11 40 11H33.0909L31.6731 7.2866C31.3772 6.51182 30.634 6 29.8046 6H19.1954Z"/>
</mask>
<path d="M17.3269 7.2866L14.5243 6.21649V6.21649L17.3269 7.2866ZM15.9091 11V14H17.9749L18.7117 12.0701L15.9091 11ZM33.0909 11L30.2883 12.0701L31.0251 14H33.0909V11ZM31.6731 7.2866L34.4757 6.21649V6.21649L31.6731 7.2866ZM20.1296 8.3567C19.9817 8.74409 19.61 9 19.1954 9V3C17.1221 3 15.2638 4.27956 14.5243 6.21649L20.1296 8.3567ZM18.7117 12.0701L20.1296 8.3567L14.5243 6.21649L13.1064 9.9299L18.7117 12.0701ZM8 14H15.9091V8H8V14ZM3 19C3 16.2386 5.23858 14 8 14V8C1.92487 8 -3 12.9249 -3 19H3ZM3 33V19H-3V33H3ZM8 38C5.23858 38 3 35.7614 3 33H-3C-3 39.0751 1.92487 44 8 44V38ZM40 38H8V44H40V38ZM45 33C45 35.7614 42.7614 38 40 38V44C46.0751 44 51 39.0751 51 33H45ZM45 19V33H51V19H45ZM40 14C42.7614 14 45 16.2386 45 19H51C51 12.9249 46.0751 8 40 8V14ZM33.0909 14H40V8H33.0909V14ZM28.8704 8.3567L30.2883 12.0701L35.8936 9.9299L34.4757 6.21649L28.8704 8.3567ZM29.8046 9C29.39 9 29.0183 8.74408 28.8704 8.3567L34.4757 6.21649C33.7362 4.27957 31.8779 3 29.8046 3V9ZM19.1954 9H29.8046V3H19.1954V9Z" fill="#152C5B" mask="url(#path-1-inside-1)"/>
<circle cx="24" cy="26" r="6.5" stroke="#FF498B" stroke-width="3"/>
<path d="M40 18H34" stroke="#152C5B" stroke-width="3" stroke-linecap="round"/>
</svg>
