<svg width="48" height="48" viewBox="0 0 48 48" fill="none" xmlns="http://www.w3.org/2000/svg">
<path d="M40 22V7.59694C40 7.08521 39.8038 6.59295 39.4519 6.22146L37.7136 4.38658C36.9785 3.61069 35.7633 3.54984 34.9545 4.24842L32 6.8" stroke="#FF498B" stroke-width="3" stroke-linecap="round"/>
<path d="M1.5 25C1.5 23.6193 2.61929 22.5 4 22.5H44C45.3807 22.5 46.5 23.6193 46.5 25V27C46.5 28.3807 45.3807 29.5 44 29.5H4C2.61929 29.5 1.5 28.3807 1.5 27V25Z" stroke="#152C5B" stroke-width="3"/>
<path d="M5.5 29.5H42.5V39C42.5 40.933 40.933 42.5 39 42.5H9C7.067 42.5 5.5 40.933 5.5 39V29.5Z" stroke="#152C5B" stroke-width="3"/>
<path d="M11 46V43" stroke="#152C5B" stroke-width="3" stroke-linecap="round"/>
<path d="M37 46V43" stroke="#152C5B" stroke-width="3" stroke-linecap="round"/>
</svg>
