<svg width="48" height="48" viewBox="0 0 48 48" fill="none" xmlns="http://www.w3.org/2000/svg">
<path d="M29.4106 36.5907C29.4106 39.6394 26.9392 42.1109 23.8905 42.1109C20.8418 42.1109 18.3703 39.6394 18.3703 36.5907C18.3703 33.542 20.8418 31.0706 23.8905 31.0706C26.9392 31.0706 29.4106 33.542 29.4106 36.5907Z" stroke="#FF498B" stroke-width="3"/>
<path d="M12.1902 28.9856C14.9793 25.7608 19.1009 23.7204 23.6991 23.7204C28.2973 23.7204 32.4189 25.7608 35.208 28.9856" stroke="#152C5B" stroke-width="3"/>
<path d="M7.5101 21.862C11.484 17.2674 17.3565 14.3602 23.908 14.3602C30.4595 14.3602 36.3321 17.2674 40.306 21.862" stroke="#152C5B" stroke-width="3"/>
<path d="M4 14.2081C8.8778 8.56838 16.0861 5 24.1278 5C32.1695 5 39.3778 8.56838 44.2556 14.2081" stroke="#152C5B" stroke-width="3"/>
</svg>
